<svg width="486" height="486" viewBox="0 0 486 486" fill="none" xmlns="http://www.w3.org/2000/svg">
<g id="ICON Copy 4">
<g id="Rectangle" filter="url(#filter0_d)">
<rect x="82" y="44" width="310" height="310" rx="8" fill="white"/>
</g>
<g id="edit-curves">
<rect id="Rectangle_2" x="156" y="132" width="161.28" height="138.24" rx="6.144" fill="url(#paint0_linear)"/>
<rect id="Rectangle_3" x="232.8" y="132" width="7.68" height="138.24" fill="#D7D7D7"/>
<rect id="Rectangle_4" x="179.04" y="132" width="7.68" height="138.24" fill="#D7D7D7"/>
<rect id="Rectangle_5" x="278.88" y="132" width="7.68" height="138.24" fill="#D7D7D7"/>
<rect id="Rectangle_6" x="156" y="201.12" width="161.28" height="7.68" fill="#D7D7D7"/>
<rect id="Rectangle_7" x="156" y="162.72" width="161.28" height="7.68" fill="#D7D7D7"/>
<rect id="Rectangle_8" x="156" y="231.84" width="161.28" height="7.68" fill="#D7D7D7"/>
<path id="Path" d="M167.155 262.557C165.313 262.625 163.758 261.324 163.683 259.65C163.607 257.976 165.04 256.563 166.882 256.495C203.433 253.727 223.141 228.166 237.601 203.527C253.677 176.147 274.015 150.389 313.655 147.376C314.544 147.291 315.432 147.54 316.115 148.065C316.797 148.59 317.213 149.345 317.268 150.156C317.344 150.96 317.064 151.759 316.49 152.376C315.916 152.992 315.095 153.374 314.209 153.438C277.755 156.2 258.677 180.53 243.489 206.406C228.181 232.47 207.185 259.526 167.432 262.557C167.34 262.561 167.248 262.561 167.155 262.557Z" fill="white"/>
</g>
</g>
<defs>
<filter id="filter0_d" x="0" y="0" width="486" height="486" filterUnits="userSpaceOnUse" color-interpolation-filters="sRGB">
<feFlood flood-opacity="0" result="BackgroundImageFix"/>
<feColorMatrix in="SourceAlpha" type="matrix" values="0 0 0 0 0 0 0 0 0 0 0 0 0 0 0 0 0 0 127 0"/>
<feOffset dx="3" dy="22"/>
<feGaussianBlur stdDeviation="22"/>
<feColorMatrix type="matrix" values="0 0 0 0 0 0 0 0 0 0 0 0 0 0 0 0 0 0 0.0697389 0"/>
<feBlend mode="normal" in2="BackgroundImageFix" result="effect1_dropShadow"/>
<feBlend mode="normal" in="SourceGraphic" in2="effect1_dropShadow" result="shape"/>
</filter>
<linearGradient id="paint0_linear" x1="370.85" y1="289.852" x2="279.763" y2="359.449" gradientUnits="userSpaceOnUse">
<stop stop-color="#FFDE63"/>
<stop offset="1" stop-color="#FF671E"/>
</linearGradient>
</defs>
</svg>
