<svg width="486" height="486" viewBox="0 0 486 486" fill="none" xmlns="http://www.w3.org/2000/svg">
<g id="ICON Copy">
<g id="Rectangle" filter="url(#filter0_d)">
<rect x="82" y="44" width="310" height="310" rx="8" fill="white"/>
</g>
<g id="theater">
<path id="Shape" fill-rule="evenodd" clip-rule="evenodd" d="M334.883 176.192C318.617 163.237 299.223 154.797 278.656 151.725C276.158 151.356 273.651 151.07 271.136 150.867L274.877 176.147C277.732 195.482 272.032 215.103 259.261 229.898C246.49 244.694 227.913 253.199 208.368 253.2C208.206 253.2 208.043 253.189 207.877 253.178L207.877 253.178C207.716 253.168 207.551 253.157 207.379 253.155C214.92 280.925 240.903 299.601 269.629 297.898C298.354 296.196 321.949 274.582 326.157 246.115L336.077 179.181C336.245 178.042 335.79 176.901 334.883 176.192ZM283.008 275.296C282.75 277.044 281.124 278.251 279.376 277.994L241.389 272.368C239.641 272.11 238.434 270.484 238.691 268.736C239.836 260.796 245.141 254.074 252.597 251.114C260.054 248.154 268.524 249.408 274.803 254.401C281.083 259.394 284.212 267.364 283.008 275.296ZM302.527 218.059C303.89 217.047 304.795 215.535 305.043 213.856L305.04 213.859C305.289 212.18 304.861 210.471 303.85 209.107C302.839 207.744 301.327 206.838 299.648 206.589L290.154 205.181C286.657 204.663 283.403 207.078 282.885 210.574C282.367 214.071 284.782 217.325 288.278 217.843L297.776 219.251C299.455 219.499 301.164 219.07 302.527 218.059Z" fill="url(#paint0_linear)"/>
<path id="Shape_2" fill-rule="evenodd" clip-rule="evenodd" d="M139.533 124.992C172.615 98.5725 217.336 91.9523 256.653 107.654C257.715 108.075 258.472 109.03 258.64 110.16L268.56 177.091C272.001 198.699 263.567 220.49 246.474 234.15C229.381 247.81 206.267 251.232 185.95 243.11C165.632 234.989 151.246 216.577 148.278 194.899L138.358 127.965C138.191 126.835 138.639 125.702 139.533 124.992ZM170.553 157.908C169.541 159.271 169.112 160.98 169.36 162.659C169.605 164.342 170.51 165.858 171.875 166.873C173.239 167.887 174.952 168.317 176.634 168.067L186.128 166.659C188.43 166.371 190.396 164.859 191.266 162.708C192.135 160.556 191.772 158.103 190.317 156.296C188.862 154.488 186.543 153.61 184.256 154L174.755 155.392C173.076 155.64 171.564 156.545 170.553 157.908ZM214.026 223.981C201.791 225.776 190.411 217.331 188.586 205.101C188.328 203.353 189.536 201.727 191.283 201.469L229.27 195.846C231.017 195.589 232.642 196.795 232.902 198.541C234.7 210.775 226.256 222.155 214.026 223.981ZM224.115 161.024L233.613 159.619C237.109 159.101 239.524 155.847 239.006 152.35C238.489 148.854 235.234 146.439 231.738 146.957L222.24 148.362C219.978 148.697 218.067 150.213 217.226 152.339C216.385 154.466 216.742 156.879 218.163 158.67C219.584 160.462 221.853 161.359 224.115 161.024Z" fill="url(#paint1_linear)"/>
</g>
</g>
<defs>
<filter id="filter0_d" x="0" y="0" width="486" height="486" filterUnits="userSpaceOnUse" color-interpolation-filters="sRGB">
<feFlood flood-opacity="0" result="BackgroundImageFix"/>
<feColorMatrix in="SourceAlpha" type="matrix" values="0 0 0 0 0 0 0 0 0 0 0 0 0 0 0 0 0 0 127 0"/>
<feOffset dx="3" dy="22"/>
<feGaussianBlur stdDeviation="22"/>
<feColorMatrix type="matrix" values="0 0 0 0 0 0 0 0 0 0 0 0 0 0 0 0 0 0 0.0697389 0"/>
<feBlend mode="normal" in2="BackgroundImageFix" result="effect1_dropShadow"/>
<feBlend mode="normal" in="SourceGraphic" in2="effect1_dropShadow" result="shape"/>
</filter>
<linearGradient id="paint0_linear" x1="254.352" y1="178.383" x2="167.664" y2="228.056" gradientUnits="userSpaceOnUse">
<stop stop-color="#FFDE63"/>
<stop offset="1" stop-color="#FF671E"/>
</linearGradient>
<linearGradient id="paint1_linear" x1="186.122" y1="126.971" x2="98.3602" y2="177.777" gradientUnits="userSpaceOnUse">
<stop stop-color="#FFDE63"/>
<stop offset="1" stop-color="#FF671E"/>
</linearGradient>
</defs>
</svg>
