<svg width="486" height="486" viewBox="0 0 486 486" fill="none" xmlns="http://www.w3.org/2000/svg">
<g id="ICON Copy 3">
<g id="Rectangle" filter="url(#filter0_d)">
<rect x="82" y="44" width="310" height="310" rx="8" fill="white"/>
</g>
<g id="voice-recognition">
<path id="Path" d="M238 286C236.811 286 235.687 285.435 234.944 284.464L204.817 245.048H167.565C156.765 245.034 148.013 235.875 148 224.571V134.476C148.013 123.173 156.765 114.014 167.565 114H308.435C319.235 114.014 327.987 123.173 328 134.476V224.571C327.987 235.875 319.235 245.034 308.435 245.048H271.183L241.052 284.464C240.31 285.434 239.187 285.999 238 286Z" fill="url(#paint0_linear)"/>
<path id="Path_2" d="M213 214C210.239 214 208 212.01 208 209.556V138.444C208 135.99 210.239 134 213 134C215.761 134 218 135.99 218 138.444V209.556C218 212.01 215.761 214 213 214Z" fill="white"/>
<path id="Path_3" d="M243 184C240.239 184 238 182.508 238 180.667V167.333C238 165.492 240.239 164 243 164C245.761 164 248 165.492 248 167.333V180.667C248 182.508 245.761 184 243 184Z" fill="white"/>
<path id="Path_4" d="M173 194C170.239 194 168 192.209 168 190V158C168 155.791 170.239 154 173 154C175.761 154 178 155.791 178 158V190C178 192.209 175.761 194 173 194Z" fill="white"/>
<path id="Path_5" d="M263 214C260.239 214 258 211.761 258 209V149C258 146.239 260.239 144 263 144C265.761 144 268 146.239 268 149V209C268 211.761 265.761 214 263 214Z" fill="white"/>
<path id="Path_6" d="M303 184C300.239 184 298 182.508 298 180.667V167.333C298 165.492 300.239 164 303 164C305.761 164 308 165.492 308 167.333V180.667C308 182.508 305.761 184 303 184Z" fill="white"/>
</g>
</g>
<defs>
<filter id="filter0_d" x="0" y="0" width="486" height="486" filterUnits="userSpaceOnUse" color-interpolation-filters="sRGB">
<feFlood flood-opacity="0" result="BackgroundImageFix"/>
<feColorMatrix in="SourceAlpha" type="matrix" values="0 0 0 0 0 0 0 0 0 0 0 0 0 0 0 0 0 0 127 0"/>
<feOffset dx="3" dy="22"/>
<feGaussianBlur stdDeviation="22"/>
<feColorMatrix type="matrix" values="0 0 0 0 0 0 0 0 0 0 0 0 0 0 0 0 0 0 0.0697389 0"/>
<feBlend mode="normal" in2="BackgroundImageFix" result="effect1_dropShadow"/>
<feBlend mode="normal" in="SourceGraphic" in2="effect1_dropShadow" result="shape"/>
</filter>
<linearGradient id="paint0_linear" x1="213.68" y1="146.165" x2="104.132" y2="221.249" gradientUnits="userSpaceOnUse">
<stop stop-color="#FFDE63"/>
<stop offset="1" stop-color="#FF671E"/>
</linearGradient>
</defs>
</svg>
