<svg width="486" height="486" viewBox="0 0 486 486" fill="none" xmlns="http://www.w3.org/2000/svg">
<g id="ICON">
<g id="Rectangle" filter="url(#filter0_d)">
<rect x="82" y="44" width="310" height="310" rx="8" fill="white"/>
</g>
<g id="privacy">
<path id="Shape" fill-rule="evenodd" clip-rule="evenodd" d="M238.099 112.091L309.379 127.931C311.192 128.334 312.482 129.943 312.48 131.8V211C312.48 252.554 278.794 286.24 237.24 286.24C195.686 286.24 162 252.554 162 211V131.8C161.998 129.943 163.288 128.334 165.101 127.931L236.381 112.091C236.947 111.968 237.533 111.968 238.099 112.091ZM268.92 238.72C271.107 238.72 272.88 236.947 272.88 234.76V195.16C272.88 192.973 271.107 191.2 268.92 191.2H257.04V171.4C257.04 160.465 248.175 151.6 237.24 151.6C226.305 151.6 217.44 160.465 217.44 171.4V191.2H205.56C203.373 191.2 201.6 192.973 201.6 195.16V234.76C201.6 236.947 203.373 238.72 205.56 238.72H268.92Z" fill="url(#paint0_linear)"/>
<path id="Path" d="M237.24 159.52C230.679 159.52 225.36 164.839 225.36 171.4V191.2H249.12V171.4C249.12 164.839 243.801 159.52 237.24 159.52Z" fill="url(#paint1_linear)"/>
<path id="Oval" d="M237.24 222.88C241.614 222.88 245.16 219.334 245.16 214.96C245.16 210.586 241.614 207.04 237.24 207.04C232.866 207.04 229.32 210.586 229.32 214.96C229.32 219.334 232.866 222.88 237.24 222.88Z" fill="url(#paint2_linear)"/>
</g>
</g>
<defs>
<filter id="filter0_d" x="0" y="0" width="486" height="486" filterUnits="userSpaceOnUse" color-interpolation-filters="sRGB">
<feFlood flood-opacity="0" result="BackgroundImageFix"/>
<feColorMatrix in="SourceAlpha" type="matrix" values="0 0 0 0 0 0 0 0 0 0 0 0 0 0 0 0 0 0 127 0"/>
<feOffset dx="3" dy="22"/>
<feGaussianBlur stdDeviation="22"/>
<feColorMatrix type="matrix" values="0 0 0 0 0 0 0 0 0 0 0 0 0 0 0 0 0 0 0.0697389 0"/>
<feBlend mode="normal" in2="BackgroundImageFix" result="effect1_dropShadow"/>
<feBlend mode="normal" in="SourceGraphic" in2="effect1_dropShadow" result="shape"/>
</filter>
<linearGradient id="paint0_linear" x1="216.909" y1="144.583" x2="114.93" y2="202.264" gradientUnits="userSpaceOnUse">
<stop stop-color="#FFDE63"/>
<stop offset="1" stop-color="#FF671E"/>
</linearGradient>
<linearGradient id="paint1_linear" x1="234.03" y1="165.444" x2="216.908" y2="173.855" gradientUnits="userSpaceOnUse">
<stop stop-color="#FFDE63"/>
<stop offset="1" stop-color="#FF671E"/>
</linearGradient>
<linearGradient id="paint2_linear" x1="235.1" y1="210.002" x2="225.184" y2="216.496" gradientUnits="userSpaceOnUse">
<stop stop-color="#FFDE63"/>
<stop offset="1" stop-color="#FF671E"/>
</linearGradient>
</defs>
</svg>
