<svg width="486" height="486" viewBox="0 0 486 486" fill="none" xmlns="http://www.w3.org/2000/svg">
<g id="ICON Copy 2">
<g id="Rectangle" filter="url(#filter0_d)">
<rect x="82" y="44" width="310" height="310" rx="8" fill="white"/>
</g>
<g id="mobile-chat">
<path id="Shape" fill-rule="evenodd" clip-rule="evenodd" d="M306 116H226C217.163 116 210 123.163 210 132V212C210 214.209 211.791 216 214 216C214.834 216.002 215.648 215.74 216.324 215.252L243.28 196H306C314.837 196 322 188.837 322 180V132C322 123.163 314.837 116 306 116ZM262 172H238C235.791 172 234 170.209 234 168C234 165.791 235.791 164 238 164H262C264.209 164 266 165.791 266 168C266 170.209 264.209 172 262 172ZM238 148H294C296.209 148 298 146.209 298 144C298 141.791 296.209 140 294 140H238C235.791 140 234 141.791 234 144C234 146.209 235.791 148 238 148Z" fill="url(#paint0_linear)"/>
<path id="Path" d="M258 204V268C258 270.209 256.209 272 254 272H162C159.791 272 158 270.209 158 268V156C158 153.791 159.791 152 162 152H202V132H166C157.163 132 150 139.163 150 148V284C150 292.837 157.163 300 166 300H250C258.837 300 266 292.837 266 284V204H258Z" fill="url(#paint1_linear)"/>
</g>
</g>
<defs>
<filter id="filter0_d" x="0" y="0" width="486" height="486" filterUnits="userSpaceOnUse" color-interpolation-filters="sRGB">
<feFlood flood-opacity="0" result="BackgroundImageFix"/>
<feColorMatrix in="SourceAlpha" type="matrix" values="0 0 0 0 0 0 0 0 0 0 0 0 0 0 0 0 0 0 127 0"/>
<feOffset dx="3" dy="22"/>
<feGaussianBlur stdDeviation="22"/>
<feColorMatrix type="matrix" values="0 0 0 0 0 0 0 0 0 0 0 0 0 0 0 0 0 0 0.0697389 0"/>
<feBlend mode="normal" in2="BackgroundImageFix" result="effect1_dropShadow"/>
<feBlend mode="normal" in="SourceGraphic" in2="effect1_dropShadow" result="shape"/>
</filter>
<linearGradient id="paint0_linear" x1="250.868" y1="134.7" x2="185.731" y2="182.48" gradientUnits="userSpaceOnUse">
<stop stop-color="#FFDE63"/>
<stop offset="1" stop-color="#FF671E"/>
</linearGradient>
<linearGradient id="paint1_linear" x1="192.327" y1="163.417" x2="106.182" y2="202.373" gradientUnits="userSpaceOnUse">
<stop stop-color="#FFDE63"/>
<stop offset="1" stop-color="#FF671E"/>
</linearGradient>
</defs>
</svg>
